<svg width="189" height="152" viewBox="0 0 189 152" fill="none" xmlns="http://www.w3.org/2000/svg">
<path d="M188.547 150.546C188.475 130.776 184.525 111.214 176.922 92.9758C169.318 74.7382 158.211 58.1825 144.234 44.254C130.257 30.3255 113.685 19.2969 95.4621 11.7981C77.2395 4.29922 57.724 0.47688 38.0299 0.549299C38.1366 29.782 37.8933 46.3155 38 75.5483C47.9019 75.5119 58.017 77.2898 67.179 81.0601C76.341 84.8304 84.6736 90.3754 91.7009 97.3784C98.7282 104.381 104.313 112.705 108.136 121.875C111.958 131.045 113.945 140.88 113.981 150.82L188.547 150.546Z" fill="#E84E1C"/>
<circle cx="37.5" cy="38.0483" r="37.5" fill="#E84E1C"/>
</svg>
